<svg width="8" height="20" viewBox="0 0 8 20" fill="none" xmlns="http://www.w3.org/2000/svg">
<path d="M7.08002 0.0602346C7.29002 0.0602346 7.50003 0.0602346 7.92003 0.0602346V3.21023C7.71003 3.21023 7.29003 3.21023 6.87003 3.21023C6.45003 3.21023 6.03003 3.21023 5.82003 3.42023C5.61003 3.63023 5.61002 3.84023 5.61002 4.33023C5.61002 4.75023 5.61002 5.03023 5.61002 5.45023H7.92003V8.11023H5.61002V19.6602H2.04003V8.04023H0.150024V5.38023H2.04003V4.47023C2.04003 2.93023 2.25003 1.81023 2.67003 1.32023C3.30003 0.410234 4.56002 -0.00976562 6.45002 -0.00976562C6.66002 0.0602344 6.87002 0.0602346 7.08002 0.0602346Z" fill="#AE1332"/>
</svg>
